# xmcd
#
# Track frame offsets:
#	150
#	21611
#	37456
#	52957
#	67080
#	82282
#	100120
#	116570
#	135196
#	151259
#	168301
#	185343
#	200991
#
# Disc length: 2829 seconds
#
# Revision: 0
# Processed by: cddbd v1.5.2PL0 Copyright (c) Steve Scherf et al.
# Submitted via: dBpowerAMP V4.0
#
DISCID=bd0b0b0d
DTITLE=Various Artist - Heart of Christmas
DYEAR=1994
DGENRE=Christmas
TTITLE0=Merry Christmas Mary - Paul Overstreet
TTITLE1=I Still Believe in Christmas - Billy Dean
TTITLE2=Our Savior is Born - Steve Wariner
TTITLE3=What Child is This? - Ricky Van Shelton
TTITLE4=O Come, O Come, Emmanuel - John Berry
TTITLE5=O Holy Night - Glen Campbell
TTITLE6=Christmastime in Dixie - Charlie Daniels
TTITLE7=The First Christmas - Doug Stone
TTITLE8=Silent Night - Emmylou Harris
TTITLE9=The Little Drummer Boy - Restless Heart
TTITLE10=The First Noel - Suzy Bogguss
TTITLE11=One Pair of Hands - Glen Campbell
TTITLE12=Hidden Track
EXTD=
EXTT0=
EXTT1=
EXTT2=
EXTT3=
EXTT4=
EXTT5=
EXTT6=
EXTT7=
EXTT8=
EXTT9=
EXTT10=
EXTT11=
EXTT12=
PLAYORDER=
